<?xml version="1.0" encoding="utf-8"?>
<!-- Generator: Adobe Illustrator 16.0.4, SVG Export Plug-In . SVG Version: 6.00 Build 0)  -->
<!DOCTYPE svg PUBLIC "-//W3C//DTD SVG 1.1//EN" "http://www.w3.org/Graphics/SVG/1.1/DTD/svg11.dtd">
<svg version="1.1" id="Layer_1" xmlns="http://www.w3.org/2000/svg" xmlns:xlink="http://www.w3.org/1999/xlink" x="0px" y="0px"
	 width="175.5px" height="23.3px" viewBox="0 0 175.5 23.3" enable-background="new 0 0 175.5 23.3" xml:space="preserve">
<path fill="#36393B" d="M0,1h3.7l5.7,14.6L15.2,1h3.6l-7.9,19.2H7.9L0,1z M20.6,1h3.3V20h-3.3V1z M27.6,1h7.5c4.4,0,7.2,2.5,7.2,6.4
	v0.1c0,4.3-3.4,6.5-7.6,6.5H31V20h-3.3V1z M34.9,10.9c2.5,0,4.1-1.4,4.1-3.4V7.4C39,5.2,37.4,4,34.9,4H31v6.9H34.9z M88.7,2.7h2.4
	V0.4h-2.4V2.7z M88.8,20h2.1V5.8h-2.1V20z M100.6,18.5c-3,0-5.2-2.4-5.2-5.5v-0.1c0-3,2.2-5.5,5.1-5.5c1.9,0,3.2,1,4.3,2.1l1.4-1.5
	c-1.3-1.4-3-2.5-5.7-2.5c-4.1,0-7.3,3.4-7.3,7.4V13c0,4,3.1,7.3,7.3,7.3c2.7,0,4.4-1.2,5.8-2.7l-1.3-1.3
	C103.8,17.5,102.4,18.5,100.6,18.5z M160.2,9.5V5.8h-2.1V20h2.1v-5.6c0-4.3,3.1-6.7,6.2-6.7h0.2V5.8C163.9,5.7,161.3,7.2,160.2,9.5z
	 M83.5,14c0,2.7-1.8,4.4-4.2,4.4c-2.5,0-3.9-1.6-3.9-4.3V5.8h-2.1v8.8c0,3.4,2,5.7,5.4,5.7c2.4,0,3.9-1.2,4.9-2.8V20h2.1V5.8h-2.1
	V14z M70.5,10.4C70.6,10.4,70.6,10.4,70.5,10.4c0-5.3-3.9-9.9-9.8-9.9S51,5.1,51,10.4v0.1c0,5.3,3.9,9.9,9.8,9.9
	c0.7,0,1.3-0.1,1.9-0.2v3.1l8.8-4.3l-3.5-1.7C69.6,15.5,70.5,13,70.5,10.4z M60.8,18.3c-4.4,0-7.6-3.6-7.6-7.9v-0.1
	c0-4.4,3.1-7.9,7.5-7.9c4.4,0,7.6,3.6,7.6,7.9v0.1c0,2.3-0.9,4.4-2.4,5.9l-3.3-1.6v3.4C62,18.3,61.4,18.3,60.8,18.3z M175.5,7.7V5.8
	H171V1.6h-2.1v4.3h-2.3v1.9h2.3v8.6c0,2.9,1.7,4,4,4c1,0,1.8-0.2,2.6-0.6v-1.8c-0.7,0.4-1.3,0.5-2.1,0.5c-1.4,0-2.4-0.6-2.4-2.4V7.7
	H175.5z M149.1,5.6c-2.1,0-3.6,0.5-5.2,1.2l0.6,1.7c1.3-0.6,2.6-1,4.3-1c2.7,0,4.2,1.3,4.2,3.8v0.4c-1.3-0.4-2.5-0.6-4.3-0.6
	c-3.6,0-6.1,1.6-6.1,4.6v0.1c0,2.9,2.6,4.4,5.3,4.4c2.5,0,4.1-1.2,5.1-2.4V20h2.1v-8.7c0-1.8-0.5-3.2-1.5-4.2
	C152.6,6.2,151.1,5.6,149.1,5.6z M153.1,14.8c0,2.2-2.1,3.8-4.7,3.8c-1.9,0-3.6-1-3.6-2.8v-0.1c0-1.7,1.5-2.9,4.1-2.9
	c1.7,0,3.1,0.3,4.1,0.6V14.8z M120.5,5.8h-2.6l-7.7,8V0h-2.1v20h2.1v-3.7l2.9-2.9l5.1,6.6h2.5l-6.1-8.1L120.5,5.8z M137.1,1.6H135
	v4.3h-2v1.9h2v8.6c0,2.9,1.7,4,4,4c1,0,1.8-0.2,2.6-0.6v-1.8c-0.7,0.4-1.3,0.5-2.1,0.5c-1.4,0-2.4-0.6-2.4-2.4V7.7h4.5V5.8h-4.5V1.6
	z M127.4,11.9c-1.9-0.6-3.6-1.1-3.6-2.4V9.4c0-1.2,1.1-2.1,2.7-2.1c1.4,0,2.9,0.5,4.2,1.4l1-1.6c-1.5-1-3.4-1.6-5.1-1.6
	c-2.8,0-4.8,1.6-4.8,4.1v0.1c0,2.6,2.5,3.4,4.7,4c1.9,0.5,3.5,1.1,3.5,2.5v0.1c0,1.4-1.2,2.2-2.9,2.2c-1.7,0-3.4-0.7-4.9-1.8
	l-1.1,1.5c1.6,1.3,3.8,2.1,5.9,2.1c2.8,0,5-1.6,5-4.2V16C131.9,13.4,129.6,12.6,127.4,11.9z"/>
</svg>
